<?xml version="1.0" encoding="UTF-8" standalone="no"?>
<!DOCTYPE svg PUBLIC "-//W3C//DTD SVG 1.1//EN" "http://www.w3.org/Graphics/SVG/1.1/DTD/svg11.dtd">
<svg width="100%" height="100%" viewBox="0 0 3451 1354" version="1.1" xmlns="http://www.w3.org/2000/svg" xmlns:xlink="http://www.w3.org/1999/xlink" xml:space="preserve" xmlns:serif="http://www.serif.com/" style="fill-rule:evenodd;clip-rule:evenodd;stroke-linejoin:round;stroke-miterlimit:2;">
    <g transform="matrix(1,0,0,1,-1729.74,-3793.28)">
        <g id="Artboard-final-canidate" serif:id="Artboard-final canidate" transform="matrix(5.26565,0,0,1.77792,-4598.43,3775.65)">
            <rect x="1201.78" y="9.919" width="655.36" height="761.53" style="fill:none;"/>
            <g transform="matrix(1,0,0,1,1.12469,16.7887)">
                <g transform="matrix(0.14439,0,0,0.427639,1239.08,125.96)">
                    <path d="M618.841,333.105C755.629,333.105 873.819,413.37 928.839,529.332C932.159,536.329 657.567,412.046 657.567,412.046C657.567,412.046 294.207,787.905 292.871,784.331C280.875,752.23 275.926,706.67 275.926,676.02C275.926,486.76 429.581,333.105 618.841,333.105Z" style="fill:rgb(255,200,87);"/>
                </g>
                <g transform="matrix(-0.0231924,-0.422086,0.142516,-0.0686887,1250.77,717.957)">
                    <path d="M611.432,-72.894C616.959,-21.188 652.118,86.124 651.788,154.296C651.528,208.029 619.455,229.876 609.177,268.69C601.276,222.398 569.878,173.561 570.709,79.162C571.309,11.084 603.787,-29.558 611.432,-72.894Z" style="fill:rgb(255,200,87);"/>
                </g>
                <g transform="matrix(0.0269494,-0.420124,0.141853,0.0798157,1220.35,621.091)">
                    <path d="M604.995,-143.931C618.326,-51.34 663.263,25.727 661.5,122.121C660.517,175.847 623.969,228.331 609.177,268.69C601.276,222.398 571.301,147.648 562.075,80.103C551.969,6.102 586.355,-72.487 604.995,-143.931Z" style="fill:rgb(255,200,87);"/>
                </g>
                <g transform="matrix(0.0738408,-0.367489,0.124081,0.218693,1202.95,499.253)">
                    <path d="M605.233,-198.291C613.518,-113.675 667.993,-31.894 665.102,101.079C663.285,184.664 623.48,245.766 609.177,268.69C597.049,183.58 548.683,85.632 543.779,-15.112C540.389,-84.763 594.117,-169.333 605.233,-198.291Z" style="fill:rgb(255,200,87);"/>
                </g>
                <g transform="matrix(0.111826,-0.270529,0.091343,0.331193,1200.67,367.137)">
                    <path d="M607.7,-226.794C616.585,-135.213 677.421,-41.824 670.497,80.804C665.758,164.718 623.48,245.766 609.177,268.69C601.276,222.398 557.493,118.345 556.304,25.678C555.264,-55.348 594.74,-167.834 607.7,-226.794Z" style="fill:rgb(255,200,87);"/>
                </g>
                <g transform="matrix(0.136323,-0.14094,0.0475877,0.403746,1213.78,240.679)">
                    <path d="M601.94,-232.6C619.524,-111.263 663.723,-43.002 662.458,68.262C661.847,121.993 623.48,245.766 609.177,268.69C601.276,222.398 559.974,107.313 555.87,-21.295C553.383,-99.235 590.824,-203.642 601.94,-232.6Z" style="fill:rgb(255,200,87);"/>
                </g>
                <g transform="matrix(0.144378,0.00564933,-0.00190747,0.427601,1240.71,135.132)">
                    <path d="M606.404,-210.236C616.111,-104.819 659.415,15.828 656.043,109.443C653.16,189.467 623.48,245.766 609.177,268.69C601.276,222.398 553.412,104.102 551.311,-1.667C549.37,-99.396 595.287,-181.277 606.404,-210.236Z" style="fill:rgb(255,200,87);"/>
                </g>
                <g transform="matrix(0.135018,0.151557,-0.0511725,0.399882,1278.2,63.2257)">
                    <path d="M606.331,-158.232C612.633,-89.179 654.145,35.413 651.112,134.209C648.666,213.899 623.48,245.766 609.177,268.69C601.276,222.398 559.022,151.177 554.706,59.282C550.743,-25.087 595.215,-129.274 606.331,-158.232Z" style="fill:rgb(255,200,87);"/>
                </g>
                <g transform="matrix(0.109374,0.279185,-0.0942654,0.32393,1321.74,33.6339)">
                    <path d="M610.117,-85.697C615.643,-33.99 647.074,69.41 646.744,137.581C646.484,191.315 623.48,245.766 609.177,268.69C601.276,222.398 559.07,163.789 558.675,95.618C558.413,50.38 599,-56.738 610.117,-85.697Z" style="fill:rgb(255,200,87);"/>
                </g>
                <g transform="matrix(0.0705369,0.373138,-0.125989,0.208908,1366.06,49.9256)">
                    <path d="M611.26,-16.095C616.787,35.612 652.124,83.48 651.794,151.652C651.534,205.386 623.48,245.766 609.177,268.69C602.829,207.379 564.24,170.049 571.149,86.562C574.88,41.477 600.144,12.863 611.26,-16.095Z" style="fill:rgb(255,200,87);"/>
                </g>
                <g transform="matrix(0.25914,0,0,0.78818,1120.67,-1510.08)">
                    <path d="M1282.33,2661.95C1275.44,2661.33 1267.85,2660.83 1259.54,2660.47C1251.24,2660.12 1243.37,2659.82 1235.93,2659.6C1228.5,2659.38 1222.49,2659.27 1217.91,2659.27L1093.17,2659.27L1091.94,2639.31L1118.18,2632.75C1118.73,2631.41 1119.17,2627.73 1119.49,2621.7C1119.81,2615.68 1120.07,2608.18 1120.25,2599.21C1120.43,2590.25 1120.52,2580.82 1120.52,2570.92L1120.52,2512.12C1120.52,2501.7 1120.43,2492.04 1120.25,2483.16C1120.07,2474.28 1119.81,2466.88 1119.49,2460.94C1119.17,2455.01 1118.73,2451.46 1118.18,2450.3L1091.94,2443.6L1093.17,2423.64L1212,2423.64L1213.23,2444.41L1179.02,2450.57C1178.75,2451.37 1178.38,2454.57 1177.92,2460.14C1177.46,2465.72 1177.1,2473 1176.82,2481.97C1176.55,2490.93 1176.41,2500.99 1176.41,2512.12L1176.41,2570.92C1176.41,2586.63 1176.55,2599.21 1176.82,2608.66C1177.1,2618.11 1177.46,2624.58 1177.92,2628.06C1182.6,2628.86 1187.46,2629.4 1192.5,2629.67C1197.54,2629.93 1203.64,2630.07 1210.79,2630.07L1226.4,2630.07C1232.34,2630.07 1237.67,2629.78 1242.4,2629.2C1247.12,2628.62 1250.99,2628.06 1254,2627.53L1277.09,2583.89L1302.4,2590.05L1282.33,2661.95Z" style="fill:rgb(8,76,97);fill-rule:nonzero;"/>
                    <path d="M1319.44,2659.27L1318.21,2639.31L1344.45,2632.75C1345,2631.5 1345.46,2628.07 1345.83,2622.44C1346.19,2616.82 1346.52,2609.5 1346.79,2600.49C1347.07,2591.48 1347.2,2581.62 1347.2,2570.92L1347.2,2512.12C1347.2,2500.98 1347.07,2490.9 1346.79,2481.89C1346.52,2472.88 1346.19,2465.49 1345.83,2459.73C1345.46,2453.98 1345,2450.7 1344.45,2449.89L1318.21,2443.6L1319.44,2423.64L1430.3,2423.64L1431.54,2443.6L1405.29,2449.89C1404.74,2451.06 1404.26,2454.54 1403.85,2460.34C1403.43,2466.15 1403.13,2473.51 1402.95,2482.43C1402.77,2491.36 1402.67,2501.25 1402.67,2512.12L1402.67,2570.92C1402.67,2581.35 1402.77,2591 1402.95,2599.88C1403.13,2608.75 1403.43,2616.09 1403.85,2621.9C1404.26,2627.7 1404.74,2631.32 1405.29,2632.75L1431.54,2639.31L1430.3,2659.27L1319.44,2659.27Z" style="fill:rgb(8,76,97);fill-rule:nonzero;"/>
                    <path d="M1598.78,2659.27L1597.26,2639.31L1618.82,2635.3C1617.08,2632.36 1615.35,2629.57 1613.61,2626.94C1611.87,2624.31 1609.03,2620.59 1605.09,2615.77L1553.9,2555.46L1537.96,2555.46L1537.96,2536.58L1555.25,2533.11L1640.17,2448.28L1613.92,2443.6L1615.16,2423.64L1708.39,2423.64L1709.63,2444.41L1682.27,2448.56L1591.76,2527.58L1590.64,2510.15L1670.07,2602.64C1676.49,2609.97 1681.62,2615.82 1685.47,2620.19C1689.32,2624.56 1692.39,2627.89 1694.68,2630.16C1696.97,2632.43 1698.7,2634.28 1699.89,2635.71L1721.2,2638.91L1721.2,2659.27L1598.78,2659.27ZM1462.98,2659.27L1461.74,2639.31L1487.99,2632.75C1488.54,2631.06 1488.98,2624.54 1489.3,2613.21C1489.62,2601.87 1489.78,2587.78 1489.78,2570.92L1489.78,2512.12C1489.78,2500.98 1489.64,2490.93 1489.37,2481.96C1489.1,2472.99 1488.77,2465.7 1488.41,2460.07C1488.04,2454.45 1487.58,2451.15 1487.03,2450.17L1460.79,2443.6L1462.02,2423.64L1572.88,2423.64L1574.12,2443.6L1547.87,2450.17C1547.32,2451.33 1546.84,2454.79 1546.42,2460.55C1546.01,2466.31 1545.71,2473.65 1545.53,2482.57C1545.35,2491.49 1545.25,2501.34 1545.25,2512.12L1545.25,2570.92C1545.25,2587.78 1545.46,2601.87 1545.87,2613.21C1546.28,2624.54 1546.67,2631.06 1547.04,2632.75L1568.46,2639.31L1567.22,2659.27L1462.98,2659.27Z" style="fill:rgb(8,76,97);fill-rule:nonzero;"/>
                    <path d="M1858.97,2662.88C1684.01,2658.06 1689.83,2415.88 1858.97,2420.03C2041.21,2424.51 2016.68,2667.23 1858.97,2662.88ZM1849.83,2441.96C1807.21,2446.04 1786.23,2489.32 1785.45,2534.29L1849.83,2534.29L1849.83,2441.96ZM1928.18,2534.29C1925.29,2489.92 1903.48,2447.19 1864.55,2442.15L1864.55,2534.29L1928.18,2534.29ZM1864.55,2638.87C1906.55,2635.73 1927.23,2593.32 1928.45,2548.63L1864.55,2548.63L1864.55,2638.87ZM1785.88,2548.63C1789.23,2591.64 1810.97,2632.55 1849.83,2638.35L1849.83,2548.63L1785.88,2548.63Z" style="fill:rgb(8,76,97);"/>
                    <path d="M2216.92,2585.07L2216.92,2523.38C2216.92,2510.37 2216.85,2498.55 2216.71,2487.94C2216.58,2477.32 2216.3,2468.66 2215.89,2461.96C2215.48,2455.26 2214.95,2451.33 2214.3,2450.17L2185.58,2443.6L2186.82,2423.64L2274.53,2423.64L2275.77,2443.6L2249.52,2450.17C2249.15,2451.33 2248.74,2455.23 2248.28,2461.89C2247.82,2468.54 2247.48,2477.18 2247.25,2487.8C2247.02,2498.42 2246.91,2510.28 2246.91,2523.38L2246.91,2599.96C2246.91,2612.38 2246.93,2623.38 2246.97,2632.97C2247.01,2642.57 2247.04,2652.05 2247.04,2661.41L2221.87,2661.41L2056.36,2474.67L2078.13,2474.41L2078.13,2554.57C2078.13,2569.01 2078.25,2581.83 2078.47,2593.03C2078.7,2604.23 2079.05,2613.23 2079.51,2620.02C2079.97,2626.81 2080.51,2631.05 2081.15,2632.75L2109.88,2639.31L2108.64,2659.27L2019.42,2659.27L2018.18,2639.31L2044.43,2632.75C2044.98,2631.05 2045.41,2626.63 2045.73,2619.48C2046.05,2612.34 2046.35,2603.09 2046.62,2591.76C2046.9,2580.42 2047.04,2568.03 2047.04,2554.57L2047.04,2501.12C2047.04,2493.83 2046.88,2486.56 2046.56,2479.29C2046.24,2472.03 2045.87,2465.72 2045.46,2460.36C2045.05,2454.99 2044.7,2451.6 2044.43,2450.17L2018.18,2443.6L2019.42,2423.64L2084.59,2423.64L2233.59,2585.07L2216.92,2585.07Z" style="fill:rgb(8,76,97);fill-rule:nonzero;"/>
                    <path d="M2288.4,2659.27L2287.17,2639.31L2308.47,2632.75L2392.28,2435.31L2426.54,2416.42L2521.38,2632.75L2542.68,2639.31L2541.45,2659.27L2431.53,2659.27L2430.02,2639.31L2456.41,2632.75L2434.29,2581.01L2429.76,2567.22L2388.41,2472.28L2400.52,2475.53L2366.2,2566.01L2362.22,2578.05L2342.72,2632.75L2369.11,2639.31L2367.87,2659.27L2288.4,2659.27ZM2352.45,2591.06L2352.45,2563.74C2357.86,2564 2364.06,2564.36 2371.06,2564.81C2378.07,2565.26 2387.24,2565.48 2398.59,2565.48C2409.67,2565.48 2418.87,2565.26 2426.19,2564.81C2433.51,2564.36 2439.74,2564 2444.88,2563.74L2444.88,2590.66C2439.77,2590.66 2433.5,2590.53 2426.09,2590.26C2418.67,2589.99 2409.51,2589.86 2398.59,2589.86C2387.49,2589.86 2378.35,2589.99 2371.16,2590.26C2363.98,2590.53 2357.74,2590.8 2352.45,2591.06Z" style="fill:rgb(8,76,97);fill-rule:nonzero;"/>
                    <path d="M2634.08,2662.88C2622.36,2662.88 2609.58,2661.28 2595.74,2658.06C2581.91,2654.85 2569.99,2650.57 2559.99,2645.21L2558.07,2585.9L2584.49,2584.3L2598.38,2625.53C2604.05,2629.1 2610.62,2631.86 2618.09,2633.82C2625.55,2635.78 2632.71,2636.76 2639.58,2636.76C2651.94,2636.76 2661.39,2634.24 2667.93,2629.21C2674.48,2624.18 2677.75,2617.3 2677.75,2608.56C2677.75,2599.38 2674.89,2591.93 2669.16,2586.23C2663.43,2580.52 2656.06,2575.66 2647.04,2571.65C2638.02,2567.64 2628.42,2563.72 2618.25,2559.89C2608.08,2556.05 2598.49,2551.37 2589.47,2545.84C2580.45,2540.31 2573.07,2533.25 2567.35,2524.64C2561.62,2516.03 2558.76,2504.99 2558.76,2491.51C2558.76,2477.14 2562.97,2464.51 2571.41,2453.63C2579.84,2442.74 2591.66,2434.26 2606.88,2428.2C2622.1,2422.13 2639.74,2419.09 2659.82,2419.09C2666.13,2419.09 2672.96,2419.54 2680.29,2420.43C2687.62,2421.33 2694.72,2422.6 2701.6,2424.25C2708.47,2425.9 2714.43,2427.84 2719.47,2430.07L2724.29,2488.59L2698.14,2490.19L2685.08,2450.96C2676.47,2446.69 2666.68,2444.55 2655.69,2444.55C2644.44,2444.55 2635.16,2447.29 2627.83,2452.77C2620.51,2458.25 2616.84,2465.98 2616.84,2475.97C2616.84,2484.8 2619.73,2492.06 2625.5,2497.77C2631.27,2503.47 2638.74,2508.42 2647.89,2512.61C2657.05,2516.8 2666.79,2520.9 2677.09,2524.91C2687.4,2528.92 2697.13,2533.65 2706.29,2539.09C2715.45,2544.53 2722.92,2551.42 2728.69,2559.76C2734.46,2568.1 2737.35,2578.65 2737.35,2591.41C2737.35,2605.15 2733.04,2617.42 2724.42,2628.22C2715.81,2639.01 2703.75,2647.49 2688.26,2653.65C2672.77,2659.8 2654.71,2662.88 2634.08,2662.88Z" style="fill:rgb(8,76,97);fill-rule:nonzero;"/>
                </g>
                <g transform="matrix(0.251547,0,0,0.745003,109.436,242.129)">
                    <path d="M4477.03,507.771L4869.36,102.338L5138.15,214.928L5122.61,303.224L5095.38,299.408C5114.49,243.082 5031.62,226.783 4950.74,209.704L5000.81,320.21L4912.31,415.019C4988.73,450.634 5050.26,445.874 5094.33,393.828L5117.8,400.554L5096.82,473.202C5023.95,507.755 4852.52,524.184 4724.04,508.247C4724.23,483.468 4724.35,471.248 4724.35,471.248L4912.97,294.933L4861.8,154.733L4517.35,508.448L4477.03,507.771Z" style="fill:rgb(8,76,97);"/>
                </g>
            </g>
        </g>
    </g>
</svg>
