<?xml version="1.0" encoding="UTF-8" standalone="no"?>
<!DOCTYPE svg PUBLIC "-//W3C//DTD SVG 1.1//EN" "http://www.w3.org/Graphics/SVG/1.1/DTD/svg11.dtd">
<svg width="100%" height="100%" viewBox="0 0 800 800" version="1.1" xmlns="http://www.w3.org/2000/svg" xmlns:xlink="http://www.w3.org/1999/xlink" xml:space="preserve" xmlns:serif="http://www.serif.com/" style="fill-rule:evenodd;clip-rule:evenodd;stroke-linejoin:round;stroke-miterlimit:2;">
    <g transform="matrix(1,0,0,1,-4.96686,-4472.45)">
        <g id="Artboard4" transform="matrix(1.1021,0,0,1.19703,2080.88,168.17)">
            <rect x="-1883.6" y="3595.81" width="725.888" height="668.322" style="fill:none;"/>
            <g id="Rays-2" serif:id="Rays 2">
            </g>
            <g transform="matrix(1.00418,0,0,1.00418,10.5162,-21.6988)">
                <g transform="matrix(0.482184,0,0,0.443945,-1774.05,3716.11)">
                    <path d="M618.841,333.105C755.629,333.105 873.819,413.37 928.839,529.332C932.159,536.329 657.567,412.046 657.567,412.046C657.567,412.046 294.207,787.905 292.871,784.331C280.875,752.23 275.926,706.67 275.926,676.02C275.926,486.76 429.581,333.105 618.841,333.105Z" style="fill:rgb(255,200,87);"/>
                </g>
                <g transform="matrix(-0.0774499,-0.43818,0.475923,-0.0713078,-1735.02,4330.68)">
                    <path d="M611.432,-72.894C616.959,-21.188 652.118,86.124 651.788,154.296C651.528,208.029 619.455,229.876 609.177,268.69C601.276,222.398 569.878,173.561 570.709,79.162C571.309,11.084 603.787,-29.558 611.432,-72.894Z" style="fill:rgb(255,200,87);"/>
                </g>
                <g transform="matrix(0.0899962,-0.436144,0.473711,0.0828591,-1836.61,4230.12)">
                    <path d="M604.995,-143.931C618.326,-51.34 663.263,25.727 661.5,122.121C660.517,175.847 623.969,228.331 609.177,268.69C601.276,222.398 571.301,147.648 562.075,80.103C551.969,6.102 586.355,-72.487 604.995,-143.931Z" style="fill:rgb(255,200,87);"/>
                </g>
                <g transform="matrix(0.246587,-0.381501,0.414362,0.227032,-1894.71,4103.64)">
                    <path d="M605.233,-198.291C613.518,-113.675 667.993,-31.894 665.102,101.079C663.285,184.664 623.48,245.766 609.177,268.69C597.049,183.58 548.683,85.632 543.779,-15.112C540.389,-84.763 594.117,-169.333 605.233,-198.291Z" style="fill:rgb(255,200,87);"/>
                </g>
                <g transform="matrix(0.373436,-0.280845,0.305035,0.343821,-1902.33,3966.49)">
                    <path d="M607.7,-226.794C616.585,-135.213 677.421,-41.824 670.497,80.804C665.758,164.718 623.48,245.766 609.177,268.69C601.276,222.398 557.493,118.345 556.304,25.678C555.264,-55.348 594.74,-167.834 607.7,-226.794Z" style="fill:rgb(255,200,87);"/>
                </g>
                <g transform="matrix(0.455244,-0.146314,0.158916,0.419141,-1858.53,3835.21)">
                    <path d="M601.94,-232.6C619.524,-111.263 663.723,-43.002 662.458,68.262C661.847,121.993 623.48,245.766 609.177,268.69C601.276,222.398 559.974,107.313 555.87,-21.295C553.383,-99.235 590.824,-203.642 601.94,-232.6Z" style="fill:rgb(255,200,87);"/>
                </g>
                <g transform="matrix(0.482142,0.00586474,-0.0063699,0.443906,-1768.61,3725.64)">
                    <path d="M606.404,-210.236C616.111,-104.819 659.415,15.828 656.043,109.443C653.16,189.467 623.48,245.766 609.177,268.69C601.276,222.398 553.412,104.102 551.311,-1.667C549.37,-99.396 595.287,-181.277 606.404,-210.236Z" style="fill:rgb(255,200,87);"/>
                </g>
                <g transform="matrix(0.450886,0.157336,-0.170888,0.415129,-1643.41,3650.99)">
                    <path d="M606.331,-158.232C612.633,-89.179 654.145,35.413 651.112,134.209C648.666,213.899 623.48,245.766 609.177,268.69C601.276,222.398 559.022,151.177 554.706,59.282C550.743,-25.087 595.215,-129.274 606.331,-158.232Z" style="fill:rgb(255,200,87);"/>
                </g>
                <g transform="matrix(0.365248,0.28983,-0.314794,0.336282,-1498.02,3620.27)">
                    <path d="M610.117,-85.697C615.643,-33.99 647.074,69.41 646.744,137.581C646.484,191.315 623.48,245.766 609.177,268.69C601.276,222.398 559.07,163.789 558.675,95.618C558.413,50.38 599,-56.738 610.117,-85.697Z" style="fill:rgb(255,200,87);"/>
                </g>
                <g transform="matrix(0.235554,0.387366,-0.420732,0.216874,-1350,3637.18)">
                    <path d="M611.26,-16.095C616.787,35.612 652.124,83.48 651.794,151.652C651.534,205.386 623.48,245.766 609.177,268.69C602.829,207.379 564.24,170.049 571.149,86.562C574.88,41.477 600.144,12.863 611.26,-16.095Z" style="fill:rgb(255,200,87);"/>
                </g>
                <g transform="matrix(0.840027,0,0,0.77341,-5546.44,3836.71)">
                    <path d="M4477.03,507.771L4869.36,102.338L5138.15,214.928L5122.61,303.224L5095.38,299.408C5114.49,243.082 5031.62,226.783 4950.74,209.704L5000.81,320.21L4912.31,415.019C4988.73,450.634 5050.26,445.874 5094.33,393.828L5117.8,400.554L5096.82,473.202C5023.95,507.755 4852.52,524.184 4724.04,508.247C4724.23,483.468 4724.35,471.248 4724.35,471.248L4912.97,294.933L4861.8,154.733L4517.35,508.448L4477.03,507.771Z" style="fill:white;"/>
                </g>
            </g>
        </g>
    </g>
</svg>
